<svg width="140" height="140" viewBox="0 0 140 140" xmlns="http://www.w3.org/2000/svg" fill="none"><path fill="#fff" d="M0 0h140v140h-140z"/><path d="M4.981 5.286h130.027v130.026h-130.027v-130.026z" fill="#0D0D0D"/><path d="M40.997 111.094h-.727v-2.012h-2.53v2.012h-.741v-4.094h.741v1.607h2.53v-1.607h.727v4.094z" fill="#fff"/><path fill-rule="evenodd" clip-rule="evenodd" d="M46.997 111.094l1.859-4.094h.894l1.859 4.094h-.769l-.503-1.146h-2.11l-.503 1.146h-.727zm3.13-1.607l-.852-1.928-.838 1.928h1.691z" fill="#fff"/><path d="M62.318 111.094h-.741v-3.522l-1.425 2.39h-.447l-1.425-2.39v3.522h-.671v-4.094h.992l1.37 2.277 1.328-2.277h1.02v4.094z" fill="#fff"/><path fill-rule="evenodd" clip-rule="evenodd" d="M72.05 109.836c0 .21-.056.378-.154.545-.098.168-.238.28-.419.392-.21.126-.433.209-.671.251-.238.056-.545.07-.908.07h-1.579v-4.094h1.453c.391 0 .685.013.88.027.196.014.391.07.559.14.196.084.335.182.433.308.098.125.14.279.14.447 0 .195-.07.363-.21.517-.14.154-.321.265-.559.363v.028c.322.07.587.182.755.364.196.167.279.377.279.642zm-1.02-1.83c0-.098-.028-.182-.07-.252-.042-.07-.112-.126-.21-.168-.112-.055-.251-.083-.391-.083-.14-.014-.349-.014-.601-.014h-.699v1.201h.825c.224 0 .391-.014.503-.028.112-.013.224-.055.335-.111.112-.056.196-.126.237-.21.056-.112.07-.21.07-.335zm.266 1.858c0-.153-.028-.279-.084-.377-.056-.098-.182-.182-.363-.252-.112-.041-.238-.069-.377-.083-.14-.014-.335-.014-.573-.014h-.825v1.509h.601c.322 0 .573-.014.755-.028.182-.028.349-.07.489-.14s.238-.153.308-.237c.042-.126.07-.238.07-.378z" fill="#fff"/><path d="M80.02 111.192c-.321 0-.601-.028-.839-.098s-.447-.154-.615-.279c-.196-.14-.321-.308-.405-.517-.084-.196-.112-.448-.112-.741v-2.557h.727v2.557c0 .196.014.349.042.475.028.126.098.238.182.349.098.112.238.196.405.252.168.056.377.084.615.084.224 0 .433-.028.615-.084.182-.056.321-.14.419-.252.098-.097.154-.223.182-.349.028-.126.056-.279.056-.461v-2.571h.727v2.557c0 .279-.042.531-.112.727-.07.209-.21.377-.405.517-.168.125-.377.223-.615.279-.252.084-.531.112-.866.112z" fill="#fff"/><path fill-rule="evenodd" clip-rule="evenodd" d="M92.281 111.094h-.95l-1.747-1.621h-.838v1.621h-.727v-4.094h1.411c.321 0 .573.013.797.041.21.028.419.084.615.182.196.098.349.21.447.349.112.14.168.322.168.545 0 .294-.098.546-.307.755-.21.196-.475.35-.838.447l1.97 1.775zm-1.579-2.949c0-.125-.028-.223-.084-.321-.056-.098-.14-.168-.266-.224-.098-.055-.224-.083-.363-.111-.14-.028-.307-.028-.517-.028h-.727v1.537h.643c.21 0 .391-.014.559-.042.168-.028.307-.084.433-.168.112-.084.182-.167.238-.279.056-.084.084-.21.084-.364z" fill="#fff"/><path d="M100.881 111.234c-.392 0-.741-.042-1.063-.126-.321-.084-.601-.223-.825-.405-.238-.182-.405-.405-.531-.671-.126-.265-.182-.573-.182-.922 0-.336.056-.629.182-.881.126-.265.307-.489.531-.67.224-.182.503-.322.825-.42.322-.098.684-.139 1.076-.139l.531.027c.167.014.335.042.489.084l.405.112c.154.042.28.084.363.126v.657h-.056l-.279-.168-.405-.182c-.154-.056-.322-.097-.503-.139-.182-.042-.406-.056-.615-.056-.531 0-.951.153-1.286.447-.321.293-.489.685-.489 1.188 0 .279.042.517.126.713.084.195.21.377.377.517.154.139.349.251.573.321.224.07.475.112.755.112.209 0 .405-.014.614-.028.21-.028.378-.056.518-.098v-1.062h-1.272v-.475h1.998v1.789l-.377.111-.433.112c-.182.042-.336.07-.489.084-.182.042-.35.042-.559.042zM35.825 89.707l-.206-.076-.163.076c-.087 0-.51-.293-1.085-.477-.879-.293-1.617-.478-2.887-.478-3.017 0-4.309 1.411-4.309 3.006 0 3.668 7.076 1.172 7.076 3.223 0 .836-.738 1.454-2.583 1.454-1.802 0-3.527-.651-3.527-1.161l.011-.174-.184-.119-1.074 1.932.184.087c.076-.043.163-.054.217-.054.174 0 .445.217 1.042.445.608.228 1.498.445 2.93.445 2.833 0 4.656-.999 4.656-2.909 0-4.308-7.076-1.4-7.076-3.603 0-.814 1.096-1.183 2.691-1.183 1.628 0 3.126.651 3.126 1.042v.174l.206.13.955-1.78zM49.347 92.421v-2.974c0-.26.054-.347.336-.347v-.206h-2.409v.206c.271 0 .315.087.315.347v7.716c0 .261-.044.347-.315.347v.206h2.409v-.206c-.271 0-.336-.087-.336-.347v-3.212h5.437v3.212c0 .261-.043.347-.315.347v.206h2.409v-.206c-.271 0-.337-.087-.337-.347v-7.716c0-.26.054-.347.337-.347v-.206h-2.409v.206c.271 0 .315.087.315.347v2.974h-5.437zM71.542 97.511c-.25 0-.304-.087-.304-.347v-6.848h2.865c.293 0 .401.033.401.174h.206v-1.758h-.206c0 .13-.119.174-.401.174h-7.488c-.293 0-.402-.043-.402-.174h-.206v1.758h.206c0-.141.119-.174.402-.174h2.865v6.848c0 .261-.043.347-.293.347v.206h2.355v-.206zM45.419 94.678l-.228.119.032.184c0 .445-1.541 1.443-3.44 1.443-1.704 0-3.484-.825-3.484-3.104 0-2.019 1.726-3.104 3.603-3.104 1.867 0 3.093.912 3.093 1.172l-.054.184.25.13 1.031-1.921-.25-.098c-.054.033-.109.076-.217.076v-.033h.033c-.011.033-1.433-.912-3.712-.912-3.147 0-5.491 1.888-5.491 4.58 0 3.006 2.55 4.439 5.068 4.439 3.484 0 4.222-1.411 4.471-1.411l.195.043.239-.119-1.139-1.671zM75.449 97.511v.206h8.064c.293 0 .402.033.402.141h.206v-1.758h-.206c0 .13-.119.206-.402.206h-5.025l5.633-7.195v-.206h-8.074c-.304 0-.423-.076-.423-.163h-.206v1.758h.206c0-.13.119-.184.423-.184h4.927l-5.524 7.195zM96.796 92.421v-2.974c0-.26.054-.347.337-.347v-.206h-2.409v.206c.271 0 .315.087.315.347v7.716c0 .261-.043.347-.315.347v.206h2.409v-.206c-.271 0-.337-.087-.337-.347v-3.212h5.438v3.212c0 .261-.044.347-.315.347v.206h2.409v-.206c-.271 0-.336-.087-.336-.347v-7.716c0-.26.054-.347.336-.347v-.206h-2.409v.206c.271 0 .315.087.315.347v2.974h-5.438zM113.964 97.891v-1.791h-.206c0 .13-.13.206-.423.206h-5.915v-2.344h3.766c.293 0 .402.119.402.206h.206v-1.823h-.206c0 .13-.12.206-.402.206h-3.766v-2.225h5.806c.304 0 .424.119.424.26h.206v-1.845h-.206c0 .098-.12.174-.424.174h-7.835v.206c.217 0 .26.087.26.347v7.716c0 .26-.043.347-.26.347v.206h7.933c.293 0 .423.043.423.174h.217v-.022zM116.863 91.13l5.491 5.882c.141.163.271.293.271.358 0 .087-.076.141-.184.141v.206h2.181v-.206c-.184 0-.249-.087-.249-.347v-7.716c0-.26.054-.347.249-.347v-.206h-2.007v.206c.173 0 .227.087.227.347v5.622l-5.198-5.535c-.119-.13-.228-.184-.228-.304 0-.098.054-.13.141-.13v-.206h-2.453v.206c.174 0 .228.087.228.347v7.716c0 .261-.054.347-.228.347v.206h1.965v-.206c-.141 0-.206-.087-.206-.347v-6.034zM92.976 94.678l-.228.119.033.184c0 .445-1.541 1.443-3.44 1.443-1.704 0-3.484-.825-3.484-3.104 0-2.019 1.726-3.104 3.603-3.104 1.867 0 3.093.912 3.093 1.172l-.054.184.25.13 1.031-1.921-.25-.098c-.054.033-.109.076-.217.076v-.033h.022c-.011.033-1.433-.912-3.712-.912-3.147 0-5.491 1.888-5.491 4.58 0 3.006 2.55 4.439 5.068 4.439 3.484 0 4.222-1.411 4.471-1.411l.195.043.239-.119-1.129-1.671z" fill="#fff"/><path fill-rule="evenodd" clip-rule="evenodd" d="M20.924 87.841c-3.115 0-5.611 1.78-5.611 5.036 0 3.256 2.507 5.036 5.611 5.036 3.104 0 5.611-1.78 5.611-5.036 0-3.256-2.507-5.036-5.611-5.036zm0 1.595c2.051 0 3.701 1.194 3.701 3.451s-1.66 3.451-3.701 3.451c-2.04 0-3.701-1.194-3.701-3.451s1.65-3.451 3.701-3.451zM61.665 87.951v-1.704h-1.845v1.704h1.845zm2.833 0v-1.704h-1.845v1.704h1.845zm-5.025 9.767v-.206c-.163 0-.25-.054-.25-.206 0-.098.087-.228.825-1.964h4.157c.814 1.791.879 1.867.879 2.019 0 .098-.076.141-.184.141v.206h2.355v-.206c-.13 0-.228-.141-.358-.434l-3.473-7.51c-.054-.13-.13-.217-.13-.315 0-.087.087-.141.174-.141v-.206h-2.529v.206c.087 0 .163.087.163.141 0 .119-.054.217-.098.315l-3.267 7.271c-.184.423-.217.662-.51.684v.206h2.247zm4.102-3.788h-2.887l1.432-3.18 1.454 3.18z" fill="#fff"/><path d="M76.262 61.393s.174.586.174.933l.695.521.119.868-1.053-.054.467.695-.119.347-.586.347s.282.64.64.64c.054 0 .228.467.228.467l-.347.586-.695.119v.467l-.868.868s-.814-.76-.76-1.867l-.521-.467.054-.64 1.053-.054.228-.467-.347-.521-.054-.347.412-.412-.293-.412h-.64l.054-.412.228-.412.933-.054.999-.738zM67.146 59.45s.141.586.13.944l.673.564.076.879-1.042-.108.423.727-.13.347-.597.315s.25.651.608.673c.054 0 .206.477.206.477l-.38.564-.705.076-.022.467-.922.825s-.771-.803-.662-1.899c-.054-.065-.499-.488-.499-.488l.087-.64h1.053l.26-.456-.325-.543-.044-.347.423-.391-.271-.423-.64-.033.076-.402.25-.391.933-.011 1.042-.727zM70.065 66.179l.304 1.216 1.291.749-1.291.141-.629.901-.326-1.042-.879-.543.944-.206.586-1.216zM71.965 73.244l1.064 1.411 1.194.228-.749.814-.076 1.563-1.085-1.118-1.498-.174.955-.955.195-1.769zM69.567 69.772l.521 1.584 1.411.922-1.519.228-.825 1.823-.423-1.758-1.302-1.064 1.4-.195.738-1.541zM64.14 72.908l1.226.347 1.226-.825-.141 1.433.619 1.161-1.574-.065-1.085.608.271-1.357-.543-1.302zM72.909 49.531c0-.065 1.422.619 1.422.619s.25.369-.065.684c0 .065-1.552-.434-1.552-.434s-.358-.803.195-.868zM72.106 51.453c-.065-.065 1.422.803 1.422.803s.184.184-.065.619h-.369l-1.302-.684c0 .011.065-.673.315-.738zM71.238 53.439c-.065-.065 1.172.184 1.367.738.065.119 0 .499 0 .499l-.499-.065-1.172-.619s-.065-.488.304-.553zM70.576 77.509l-1.031.412-.749 1.291-.13-1.291-1.02-.564 1.15-.391.553-.89.195.955 1.031.478zM57.986 61.708c.293.033.553.054.716.022.174-.033.293-.033.402-.033h.119c.304-.054.532-.293.803-.51-.662 0-1.411-.239-1.476-1.194 0 0-.608 1.009-.564 1.715zm2.876-.922c.619.011.673.988.619 1.465-.043.38-.174.857-.543 1.324l.141.25c.358.64.575 1.291.651 1.943.152-.966.456-2.984.879-4.862-.38.108-.944.022-1.498-1.031l-.282-.814-.25.434c0 .011-.065.803.282 1.291zm.586 7.206c-.054.152-.119.315-.195.478l-.109.141-.174.141-.521.402-.195.152-.846 1.389-.065.76.391.564c.412.402.619.304 1.118.119l.412-.705.119-.63c-.032-.846-.022-1.791.065-2.811zm6.045-23.615c.098-.076.184-.13.282-.163.684-.369 3.722-1.129 6.533.271l.423-.814c-.619-.434-1.194-.586-1.877-.651-1.693-.163-4.374-.108-5.481 1.161l.119.195zm10.896 27.37c.141.412.488 1.194 1.053.923l.347-.25c.716 1.313 0 1.856-.955 2.062l.651.467 1.465-.119.76-.998-.141-.553c-.532-.315-2.605-1.66-2.93-3.712l-.022-.163-.163 1.953-.065.391zm-2.474-24.679c-.195-.282-.445-.64-.684-.944-.445-.554-1.476-.912-3.223-1.498-1.454-.488-2.594.076-3.95.445-.532.141-.857.857-1.183 1.943-.271.89.857 7.033 1.064 8.107l-.684 1.15 1.194.217c-.054-.456-.163-1.812.293-3.126 0-.119 1.552-2.724 1.519-3.494.054-.217.087-3.679.087-3.679s1.943-.998 3.18 1.357c0 .098.184.054.184.054l2.203-.532zm-9.702 9.192l.347-.564.38-.575-.184-.684-.022-.13c-.401.434-1.031.966-1.747 1.107-.087.022-2.789 1.302-2.539 2.789.043.098.369.445.694.684.337-1.075.706-1.888 1.118-2.095l1.129-.543.825.011zm-2.431 4.667c-.467 1.78-.955 4.037-1.107 5.98-.228 3.093-.076 4.634-.011 5.123 1.552-.933 3.169-2.952 4.363-4.623 1.194-1.682 2.876-7.098 3.234-8.465-1.411-1.367-3.147-1.704-5.046-1.194-.293.076-.488.163-.586.206-.098.336-.456 1.487-.847 2.974zm-.955 12.6c.608 3.028 2.225 6.067 5.546 6.316.499.032.825-.011.836-.011 3.451 0 5.481-2.344 6.512-4.07-.857-.803-3.256-3.408-3.853-8.074-.391-3.061-.651-5.405-.814-6.924-.315.662-1.4 3.896-3.267 7.358-1.4 2.605-3.798 4.558-4.96 5.405zm13.273 1.226l1.161-3.907c.011-.239.054-1.725.119-3.278.065-1.671.163-3.495.271-3.864.195-.673.792-2.518.792-2.518l.336-.836c-1.281-1.606-3.701-1.4-5.437-1.259-.456.033-.847.087-1.107.119-.032 1.867.054 10.278 3.864 15.541zm5.079-13.533c.174-.304.445-1.074.575-1.476-.749-.261-1.726-.597-2.648-.966.304.228.608.488.912.792.271.271.26.64.087.955l-.564 1.476c.695-.25 1.519-.586 1.639-.781zm-2.42 6.425c.336-1.335 1.064-2.42 1.172-2.648-.065-.032-.695.434-1.009.597l-.163 2.051zm1.791-2.583c-.195.619-1.346 3.017.13 6.023l2.442-3.907 1.867.532.141-.662-.109-.651-.358-.347c-.38-.38-.662-.792-.608-1.367.033-.434 1.031-.369 1.313-.38l.25-.337c-.326-.087-.619-.282-.912-.521l-.13-.119c-.467-.467-.857-1.335-1.172-2.192-.13.738-.304 1.606-.532 2.453-.315 1.161-.749 1.954-1.15 3.006-.065.184-.098.315-.098.423 0 .326-.054.727-.109 1.053-.054.315-.304 1.443-.304 1.443l-.499-1.498c-.228-.955.597-2.865 1.042-3.755.326-.988.564-2.073.684-3.147-.239.575-.543 1.064-.781 1.183l-.119.054-.38.174c-.358.152-1.552.684-2.051 1.053l-.043.477c.792.195 2.474-.532 2.474-.532l-.988 1.541zm-8.367-7.326l.228-1.888s1.02-1.584 1.66-2.778c.282-.521 1.216-4.558 1.172-4.58.033-.065-1.66.271-1.66.271s-1.009-.998-1.064-1.064c-.781-.89-1.454-.543-1.454-.543s0 3.039-.022 3.332c-.315.803-1.259 2.843-1.259 2.843-.282.543-.434 1.118-.434 1.118-.282.771-.109 1.704-.065 2.279.792.434 2.029 1.129 2.724 1.031l.174-.022zm2.605-3.223c-.282.38-.608.716-.977.988 0 .174-.076 1.074-.326 2.04.412-.065.814-.108 1.248-.108.662-.011 1.389.054 2.138.261-.868-.597-1.617-2.04-2.084-3.18zm1.161-2.485c-.13.445-.282.879-.478 1.291.51 1.248 1.27 2.833 2.095 3.473.033.054 2.995 1.628 4.96 2.366h.456c.152-.315.261-.63.347-.966l.065-.282c-.25-.054-1.259-.401-1.367-.749-.217-.63-.564-.814-.781-.901l-.163-.065-.119-.022-1.096-.217c.304-.315.868-.933 1.085-1.389v-.043c-.011.032-2.04.152-2.094.141-.326-.098-.629-.239-.901-.434.825 1.335 1.986 2.67 3.212 2.963l-.022.499-.206.032c-1.541-.152-3.017-1.726-3.647-2.887-.716-1.27-1.118-2.192-1.346-2.811zm.564-3.212c-.043.499-.098 1.074-.206 1.671.108.402.282.825.749 1.66.597 1.074.76 1.302 1.628 1.671.868.369 1.498.184 1.585-.184.087-.369-1.205-.391-1.205-.391 1.194-.575 1.693-.163 1.91.217 1.281-.423 2.138-1.53 2.659-2.746 0 0 .282-.119.553-.13l1.074-.836-1.161-.89.716-.293.152-.076c-.108-.445-1.02-.087-1.248 0 0 0 .054-.857.076-1.335l.022-.651c-1.053.011-1.758.391-1.791 1.433-.011.26-.228.325-.26.325-.564 0-.662.217-.51.651l2.084.098v1.129s-.684-.033-1.096-.043h-.412c.336.749.467 1.324.271 1.617-.553.836-2.105.76-3.006.705l-.326-.022-.38-.369c.206-.412.326-1.215.391-1.715-1.096-.076-1.932-.64-2.268-1.498zm4.211-3.863l-.044-.108-.065-.195-.043-.184c0-.662-.716-.684-1.172-.673v-.803c-.326.304-1.313.944-1.595.662-.347-.347-.456-.412-.922-.239l-.119.13c.456.966.293 1.736-.467 2.388l.271.358.174-.087c.716-.64 1.899-1.411 2.865-.77.108.076.478.271.771.434l-.109-.282-.13-.293c-.163-.358.326-.434.369-.391.043.043.119.108.184.076l.033-.022zm-9.04-3.126l-.478-2.561h-.998l-.532.109-.141.108.108.543.054 1.237.054.63c.423-.065.847-.098 1.248-.087.119 0 .369 0 .684.022zm-13.555 11.287c.206.315.445.619.684.912.26.391.857.109 1.27-.163l-1.953-.749zm-.944-.532l.467-.434.358.792.217-.499c-.532-.337-.781-.673-1.053-1.237 0 0 .401-.51.564-.738-.304-.336-.825-1.291-.532-1.736l-.022-.206c0-.488.673-.922 1.096-.922l.326.011-.011-.163c-.054-.922.488-1.465 1.107-2.073h-1.519s.336-.543.499-.781c.543-.77 1.66-2.16 2.724-1.943.651.13.977.412 1.085.749 1.53-.282 1.856.933 2.127 2.105.109.488.217 1.27.217 1.27l-1.585-.499c-1.074 1.02-.673 2.019.282 2.833-.108-.423-.076-.944.347-1.541.532-.749 1.444-.673 2.225-.38.022-.467.076-.825.184-1.031.163-.326.467-.922.825-1.367l-.673-.89c-.261-.304.532-.933 1.053-1.205.412-.261.879-.456 1.357-.597l-1.389-.608.098-.488 1.064-.033-1.031-1.074.64-.575.77.488-.098-.543-.608-.195-.065-.553 1.031-.336-.488-.119-.336-.521.206-.087.749-.13-.879-.358-.076-.673.651.206.499-.119.174-.477-.358-.326.022-.499-1.129.423.174-.836.836-.315s-.564-1.487.619-1.367c.065 0 1.053.141.608 1.226.065.065 1.476-.423 1.433 1.02.065-.065-1.194-.098-1.194-.098l-.043.51s-.109.119-.358.315c.022.022.141.369.293.412.304.087.727-.206.727-.206s.857.77-.326 1.042c.315-.022 1.291.033 1.291.033s-.673.477-1.291.738c-.011.13-.011.434-.011.64h.401l1.216-.619.184.521-.684 1.172.434-.586.64-.13.25.879-.662.846.597-.271.771.26-.629 1.389c.184.043.369.098.543.152.499.152.955.434 1.552.998l-.391.564-.629.879c.282.163.564.347.836.553.901-.271.684-1.454.51-2.084l.184-.25c.564-.673 1.324-.803 2.094-.391.391-.174.51-.521.619-.912l1.368.369.065.901c1.281.532 1.161 1.27 1.433 2.518l-.727.402v.239l-.011.239.022.152c0 .293-.152.586-.51.63l-.271.412s-.63-.402-1.281-.727c-.304.065-1.031.325-1.487.553l.054.206c.293.998.456 1.465 1.574 1.541.434.033 1.129-.054 1.129-.054l-.326 2.29c.206.022.847.022.988-.065.228-.38-.77-2.225-.77-2.811 0-.564.543-.977.988-1.215.206-.553.575-1.085.901-1.498.651-.814 1.791-.847 2.713-.608l.119 2.214.217.033c1.063.184 1.205.543 1.053 1.53l1.129.781-1.324 1.237c.326.076.64.184.836.25l-.423 1.248-1.932-.326c-.358.478-1.346 1.812-1.737 2.073-.271.174-.597.184-.825.174l.022.412c0 .184-.011.412-.065.629l.282.206c.423.337.933.77 1.194 1.139.401.564 1.042.054 1.443-.195l-.705 2.93c.119.282.564 1.324 1.063 2.637.141.369.456 1.02.738.89l.076-.488h.239c.358 0 .771 1.053.564 2.062.032.239-.087.477-.195.651-.217.358-.553.695-.879.988.054.619.163 1.877-.022 2.301-.033.315-.684.315-.879.304-.347-.011-.803-.087-1.226-.326l-.141.206c-.293.412-1.606 2.322-1.53 2.746l.282.51.499.857c.261.434.38 2.496-1.129 3.137-.369.163-2.746.032-3.451-1.389l-.163-.239c-.26.77-.738 1.91-1.508 3.039-4.016 5.926-12.09 4.873-14.402-2.073-.033-.098-.228-.846-.391-2.073l-.423.26-.977.174-1.302-.51-.705-1.248v-1.291l.521-.89v-.423c-.25-.239-.521-.564-.586-.912l-.076-.423c-.662.803-1.302 1.064-2.344 1.02l-2.29-1.129.499-1.509.467-.532.217.119c.141-.152.163-.369.174-.488-.814-1.042-1.302-2.475-1.107-3.809.293-2.051.488-2.778 1.281-3.766.423-.532 1.053-1.15 1.66-1.563l-.38-.174-1.53-.261v-1.107l.586-.803.684-.315.369-.488.63-.347.25-.141zm-2.073 7.315c-.521 1.487-.456 3.191.564 4.981.228.401.13 2.094-.955 1.877l1.302.77c.184.011.803.011 1.129-.293.423-.391 1.508-1.552 1.508-1.552.032.944.119 2.008.716 2.8.89-.521.955-.521 1.226-1.617.326-1.324-.152-2.279-.857-3.375.217-.293.597-.825.651-1.15l.022-.13c-1.118.803-2.409.499-3.549-.033.38.662.825 1.118 1.302 1.172 0 0 .195.163.195.13.749.619 1.042 1.118 1.324 1.964l-.336.206c-.271-.825-.478-1.281-1.14-1.823l-.119-.098c-.77-.152-1.356-.955-1.791-1.813l1.129 3.223-.369.315-1.953-5.557zm4.471-7.293l1.4.456.38-.597-1.877.087.098.054zm-1.205-1.519l-.098.141.076.108c.108.152.803.488.955.564l.011.163 1.313-.412s-.781-.108-1.27-.184c-.347-.054-.771-.261-.988-.38zm-.326-1.997l.065.217.597.684.228.228.141.195.51-.738-.738-.521-.803-.065zm3.625 4.515c-.087.174-.184.347-.293.488-.597.738-1.4.988-2.127 1.031-.988.065-1.4-1.075-1.519-1.541l-.108-.152-.369.325-.315.434-.771.402-.152.586 1.367.25 1.736 1.064-1.074.423s-1.205.673-2.008 1.27c-.065.423-.239 2.865 1.053 3.364l.163.033c-.337-.358-.575-.847-.402-1.519.369-1.454 1.628-2.051 1.628-2.051s.044 1.357.749 1.943c.705.597.814.315.814.315s-.401-.998-.293-1.487c.228-.966 1.15-1.063 1.15-1.063s.467 1.552.857 1.975c.521.553 1.15-.076 1.15-.076s-1.357-.488-1.194-1.78c.293-2.377 3.234-3.017 3.234-3.017l1.617-1.715-.065-.499-6.002 3.896.25-1.064c1.433-1.281 3.473-2.518 4.797-3.278l-2.138.315s-1.693-.586-.706-1.508c.044-.043 1.075-.206 2.019.108-.152.174-.586.434-.933.619-.195.108 1.661-.304 2.55-.499l-.043-.456-.076-.792c-.358.076-.847.152-1.324.184-.901.054-2.062-.043-2.594-.836-.966-1.433-1.259-3.538 1.053-3.929l.369.195c-.488-1.183-1.172-.944-2.16-.608-.065-1.172-.412-1.487-1.346-.51l.64-.033.163.217c.228.401.108.836-.217 1.161-.488.488-1.139 2.442-1.215 2.952h-.347l1.194.781-.966 1.433 2.322.564-.998.445 1.454-.054-.022.532-.011.163c-.054.358-.271.706-.543.998z" fill="#fff"/></svg>