<?xml version="1.0" encoding="UTF-8"?>
<svg width="86px" height="40px" viewBox="0 0 86 40" version="1.1" xmlns="http://www.w3.org/2000/svg" xmlns:xlink="http://www.w3.org/1999/xlink">
    <title>Group</title>
    <g id="Symbols" stroke="none" stroke-width="1" fill="none" fill-rule="evenodd">
        <g id="header" transform="translate(-40.000000, -20.000000)" fill="#0E2146">
            <g id="Group" transform="translate(40.000000, 20.500000)">
                <path d="M4.9270116,30.5103356 L4.9270116,31.3919527 L1.08807164,31.3919527 L1.08807164,34.0479634 L4.19605065,34.0479634 L4.19605065,34.8961013 L1.08807164,34.8961013 L1.08807164,37.6246502 L4.9270116,37.6246502 L4.9270116,38.5062673 L2.84217094e-14,38.5062673 L2.84217094e-14,30.5103356 L4.9270116,30.5103356 Z M13.2582418,35.6159026 C13.3103207,35.7051807 13.355889,35.7991073 13.3949482,35.8976852 L13.5093352,36.1962075 L13.5093352,36.1962075 C13.5465344,36.0920496 13.585593,35.9925432 13.6265122,35.8976852 C13.6674313,35.8028272 13.7139296,35.7070407 13.7660085,35.6103227 L16.472238,30.6944708 C16.520597,30.6089126 16.5708152,30.5568345 16.6228941,30.5382349 C16.674973,30.5196353 16.7493703,30.5103356 16.8460883,30.5103356 L17.6440075,30.5103356 L17.6440075,38.5062673 L16.6954322,38.5062673 L16.6968271,32.5093186 L16.6968271,32.5093186 L16.701012,32.3795869 C16.704732,32.2903088 16.7103118,32.1991721 16.7177516,32.106174 L13.978043,37.1057238 C13.885045,37.2731202 13.7548497,37.3568172 13.5874532,37.3568172 L13.4312172,37.3568172 C13.2638208,37.3568172 13.1336255,37.2731202 13.0406274,37.1057238 L10.2395404,32.0894345 C10.2507002,32.1861524 10.2590699,32.281009 10.2646498,32.3740071 L10.2730196,32.6306804 L10.2730196,32.6306804 L10.2730196,38.5062673 L9.32444427,38.5062673 L9.32444427,30.5103356 L10.1223635,30.5103356 C10.2190814,30.5103356 10.2934788,30.5196353 10.3455577,30.5382349 C10.3976366,30.5568345 10.4478548,30.6089126 10.4962137,30.6944708 L13.2582418,35.6159026 Z M23.620539,35.5154652 L23.620539,38.5062673 L22.543627,38.5062673 L22.543627,30.5103356 L24.9039055,30.5103356 C25.4098149,30.5103356 25.849689,30.5689235 26.2235411,30.6861011 C26.5973933,30.8032786 26.9070721,30.9697426 27.1525869,31.185498 C27.3981018,31.4012535 27.5813052,31.6616441 27.7022026,31.9666777 C27.8231001,32.2717113 27.8835479,32.612079 27.8835479,32.9877911 C27.8835479,33.3597832 27.8184502,33.700151 27.688253,34.0089045 C27.5580557,34.317658 27.3674126,34.5836284 27.1163179,34.8068237 C26.8652232,35.030019 26.5536844,35.2039227 26.1816922,35.3285401 C25.8097001,35.4531574 25.3837754,35.5154652 24.9039055,35.5154652 L23.620539,35.5154652 Z M23.620539,34.6561676 L24.9039055,34.6561676 C25.212659,34.6561676 25.4851392,34.6152491 25.7213542,34.5334108 C25.9575693,34.4515725 26.1556521,34.3371866 26.3156087,34.1902497 C26.4755654,34.0433128 26.596461,33.8675492 26.6782993,33.6629535 C26.7601376,33.4583578 26.8010561,33.2333059 26.8010561,32.9877911 C26.8010561,32.4781618 26.6438918,32.0801362 26.3295584,31.7937022 C26.015225,31.5072682 25.5400121,31.3640534 24.9039055,31.3640534 L23.620539,31.3640534 L23.620539,34.6561676 Z M33.1737573,37.596751 L36.6332671,37.596751 L36.6332671,38.5062673 L32.0912655,38.5062673 L32.0912655,30.5103356 L33.1737573,30.5103356 L33.1737573,37.596751 Z M47.6484073,34.5110914 C47.6484073,35.1099988 47.5535508,35.6596089 47.3638348,36.1599384 C47.1741188,36.6602679 46.9062884,37.0908423 46.5603357,37.4516747 C46.214383,37.8125071 45.798688,38.092427 45.3132382,38.2914429 C44.8277884,38.4904587 44.2911978,38.5899651 43.7034502,38.5899651 C43.1157025,38.5899651 42.5800418,38.4904587 42.096452,38.2914429 C41.6128622,38.092427 41.1980972,37.8125071 40.8521445,37.4516747 C40.5061917,37.0908423 40.2383614,36.6602679 40.0486454,36.1599384 C39.8589294,35.6596089 39.7640728,35.1099988 39.7640728,34.5110914 C39.7640728,33.912184 39.8589294,33.3625738 40.0486454,32.8622443 C40.2383614,32.3619149 40.5061917,31.9304104 40.8521445,31.5677181 C41.1980972,31.2050257 41.6128622,30.9232459 42.096452,30.7223701 C42.5800418,30.5214943 43.1157025,30.421058 43.7034502,30.421058 C44.2911978,30.421058 44.8277884,30.5214943 45.3132382,30.7223701 C45.798688,30.9232459 46.214383,31.2050257 46.5603357,31.5677181 C46.9062884,31.9304104 47.1741188,32.3619149 47.3638348,32.8622443 C47.5535508,33.3625738 47.6484073,33.912184 47.6484073,34.5110914 Z M46.5380163,34.5110914 C46.5380163,34.0200617 46.4710587,33.5792576 46.3371415,33.1886658 C46.2032243,32.7980741 46.0135112,32.467936 45.7679963,32.1982416 C45.5224815,31.9285473 45.2248923,31.7211648 44.8752196,31.5760879 C44.525547,31.4310109 44.1349611,31.3584735 43.7034502,31.3584735 C43.2756592,31.3584735 42.8869332,31.4310109 42.5372605,31.5760879 C42.1875879,31.7211648 41.8890687,31.9285473 41.6416939,32.1982416 C41.3943191,32.467936 41.203676,32.7980741 41.0697588,33.1886658 C40.9358416,33.5792576 40.868884,34.0200617 40.868884,34.5110914 C40.868884,35.002121 40.9358416,35.4419952 41.0697588,35.830727 C41.203676,36.2194588 41.3943191,36.5486669 41.6416939,36.8183612 C41.8890687,37.0880556 42.1875879,37.2945081 42.5372605,37.4377251 C42.8869332,37.5809421 43.2756592,37.6525495 43.7034502,37.6525495 C44.1349611,37.6525495 44.525547,37.5809421 44.8752196,37.4377251 C45.2248923,37.2945081 45.5224815,37.0880556 45.7679963,36.8183612 C46.0135112,36.5486669 46.2032243,36.2194588 46.3371415,35.830727 C46.4710587,35.4419952 46.5380163,35.002121 46.5380163,34.5110914 Z M54.6014134,35.3257501 L54.6014134,38.5062673 L53.5245015,38.5062673 L53.5245015,35.3257501 L50.5950778,30.5103356 L51.5436531,30.5103356 C51.6403711,30.5103356 51.7166283,30.5345148 51.7724271,30.5828737 C51.828226,30.6312327 51.8765842,30.6907506 51.9175034,30.7614291 L53.7476957,33.8694081 C53.8220941,33.9996054 53.8844019,34.1223609 53.9346208,34.2376785 C53.9848397,34.3529961 54.0304081,34.466452 54.0713272,34.5780496 C54.1122464,34.4627321 54.1568848,34.3474162 54.2052437,34.2320986 C54.2374831,34.1552203 54.2755085,34.0758627 54.3193207,33.994025 L56.2139914,30.7614291 C56.2474707,30.7019103 56.293039,30.6451824 56.3506978,30.5912435 C56.4083566,30.5373047 56.4836839,30.5103356 56.5766819,30.5103356 L57.5364169,30.5103356 L54.6014134,35.3257501 Z M66.3084556,30.5103356 L66.3084556,31.3919527 L62.4695156,31.3919527 L62.4695156,34.0479634 L65.5774946,34.0479634 L65.5774946,34.8961013 L62.4695156,34.8961013 L62.4695156,37.6246502 L66.3084556,37.6246502 L66.3084556,38.5062673 L61.381444,38.5062673 L61.381444,30.5103356 L66.3084556,30.5103356 Z M71.8943973,35.1695142 L71.8943973,38.5062673 L70.8174854,38.5062673 L70.8174854,30.5103356 L73.0773265,30.5103356 C73.5832358,30.5103356 74.0203201,30.5614838 74.3885923,30.6637816 C74.7568645,30.7660795 75.0609636,30.9139441 75.3008985,31.1073801 C75.5408335,31.300816 75.7184571,31.5342376 75.8337746,31.8076518 C75.9490922,32.0810661 76.0067501,32.387025 76.0067501,32.7255379 C76.0067501,33.0082519 75.9621117,33.2723624 75.8728336,33.5178773 C75.7835555,33.7633921 75.6542902,33.9837941 75.4850337,34.17909 C75.3157773,34.3743859 75.1093247,34.5408499 74.8656699,34.678487 C74.622015,34.8161241 74.345815,34.9202804 74.0370615,34.9909589 C74.1709786,35.0690772 74.2900143,35.1825331 74.3941722,35.33133 L76.7265514,38.5062673 L75.7668164,38.5062673 C75.6025198,38.5062673 75.4743907,38.4533108 75.3824265,38.3473967 L73.2558818,35.4206077 C73.1926431,35.3313295 73.1238256,35.2671619 73.0494272,35.2281027 C72.9750288,35.1890435 72.8634328,35.1695142 72.7146359,35.1695142 L71.8943973,35.1695142 Z M71.8943973,34.3827547 L73.0271078,34.3827547 C73.3433011,34.3827547 73.6213611,34.3446261 73.861296,34.2683677 C74.101231,34.1921093 74.3021037,34.0842332 74.4639203,33.9447361 C74.6257369,33.8052391 74.7475625,33.6387751 74.8294008,33.4453391 C74.9112391,33.2519032 74.9521576,33.0380109 74.9521576,32.8036559 C74.9521576,32.3275059 74.7949933,31.9685388 74.4806599,31.7267439 C74.1663265,31.484949 73.6985534,31.3640534 73.0773265,31.3640534 L71.8943973,31.3640534 L71.8943973,34.3827547 Z M84.8290075,31.7602231 C84.7955282,31.8160219 84.7601895,31.8578704 84.7229903,31.8857698 C84.685791,31.9136692 84.6374328,31.9276187 84.577914,31.9276187 C84.530485,31.9276187 84.4773024,31.9098331 84.4183652,31.8742615 L84.3575098,31.8327612 C84.2738115,31.7695225 84.1677954,31.699775 84.0394581,31.6235166 C83.9111208,31.5472582 83.7567463,31.4775107 83.5763301,31.4142721 C83.3959139,31.3510334 83.1773718,31.3194145 82.9206972,31.3194145 C82.6789023,31.3194145 82.46501,31.3519634 82.2790139,31.417062 C82.0930179,31.4821606 81.9377135,31.5705074 81.8130961,31.6821051 C81.6884787,31.7937027 81.5945521,31.924828 81.5313134,32.0754848 C81.4680748,32.2261417 81.4364559,32.3888858 81.4364559,32.5637221 C81.4364559,32.7869174 81.4913239,32.9719807 81.6010616,33.1189177 C81.7107993,33.2658546 81.8558741,33.3914 82.0362903,33.4955578 C82.2167065,33.5997156 82.4212991,33.6899224 82.6500743,33.7661808 L83.3531359,34.0033246 L83.3531359,34.0033246 C83.5930709,34.0851629 83.8274224,34.1772296 84.0561976,34.2795274 C84.2849728,34.3818253 84.4895654,34.5110906 84.6699816,34.6673273 C84.8503978,34.823564 84.9954726,35.0151371 85.1052103,35.2420523 C85.214948,35.4689675 85.269816,35.7479575 85.269816,36.0790305 C85.269816,36.4287031 85.2102981,36.7569813 85.0912607,37.0638748 C84.9722232,37.3707684 84.7983194,37.6376688 84.5695442,37.864584 C84.3407691,38.0914992 84.0599192,38.2700528 83.7269862,38.40025 C83.3940532,38.5304473 83.0155569,38.5955449 82.5914858,38.5955449 C82.0744167,38.5955449 81.6029237,38.5016183 81.1769927,38.3137623 C80.7510616,38.1259062 80.3874447,37.8720254 80.0861311,37.5521121 L80.3986029,37.0387655 C80.4283623,36.9978464 80.464631,36.9634376 80.5074101,36.9355382 C80.5501892,36.9076388 80.5976175,36.8936893 80.6496964,36.8936893 C80.7278148,36.8936893 80.8170915,36.9355378 80.9175294,37.019236 C81.0179673,37.1029342 81.1435128,37.1950009 81.2941696,37.2954388 C81.4448264,37.3958767 81.6270999,37.4879434 81.8409954,37.5716416 C82.0548909,37.6553398 82.3162114,37.6971883 82.6249649,37.6971883 C82.8816395,37.6971883 83.1104113,37.6618496 83.311287,37.5911711 C83.5121628,37.5204926 83.6823467,37.4209862 83.8218437,37.2926489 C83.9613408,37.1643116 84.0682869,37.0108671 84.1426854,36.8323109 C84.2170838,36.6537546 84.2542825,36.4547418 84.2542825,36.2352664 C84.2542825,35.9934715 84.1994144,35.7953887 84.0896768,35.6410119 C83.9799391,35.4866352 83.8357943,35.3573698 83.657238,35.253212 C83.4786818,35.1490542 83.2750191,35.0607074 83.0462439,34.9881689 L82.3431823,34.7649748 L82.3431823,34.7649748 C82.1032473,34.6887164 81.8688958,34.6003695 81.6401206,34.4999317 C81.4113454,34.3994938 81.2076828,34.2692985 81.0291265,34.1093418 C80.8505703,33.9493852 80.7064255,33.7494424 80.5966878,33.5095075 C80.4869501,33.2695725 80.4320821,32.9729132 80.4320821,32.6195207 C80.4320821,32.3368066 80.4869501,32.0633965 80.5966878,31.799282 C80.7064255,31.5351676 80.8654497,31.3008161 81.0737654,31.0962204 C81.282081,30.8916247 81.5396817,30.7279506 81.8465752,30.6051932 C82.1534687,30.4824357 82.505926,30.421058 82.9039577,30.421058 C83.3503483,30.421058 83.7576736,30.4917354 84.1259458,30.6330924 C84.4942181,30.7744495 84.8159865,30.9790421 85.0912607,31.2468764 L84.8290075,31.7602231 Z" id="EMPLOYERS"></path>
                <path d="M-1.42108547e-14,25.488 L10.476,25.488 L10.476,21.888 L3.96,21.888 L3.96,0.288 L-1.42108547e-14,0.288 L-1.42108547e-14,25.488 Z M15.627636,3.888 L22.467636,3.888 L22.467636,0.288 L11.667636,0.288 L11.667636,25.488 L22.467636,25.488 L22.467636,21.888 L15.627636,21.888 L15.627636,14.508 L21.063636,14.508 L21.063636,10.908 L15.627636,10.908 L15.627636,3.888 Z M33.163272,0.288 L27.367272,0.288 L23.335272,25.488 L26.971272,25.488 L27.655272,20.916 L32.515272,20.916 L33.199272,25.488 L37.195272,25.488 L33.163272,0.288 Z M30.067272,4.752 L31.975272,17.496 L28.159272,17.496 L30.067272,4.752 Z M38.494908,25.488 L44.758908,25.488 C48.718908,25.488 50.662908,23.292 50.662908,19.26 L50.662908,6.516 C50.662908,2.484 48.718908,0.288 44.758908,0.288 L38.494908,0.288 L38.494908,25.488 Z M44.686908,3.888 C45.946908,3.888 46.702908,4.536 46.702908,6.336 L46.702908,19.44 C46.702908,21.24 45.946908,21.888 44.686908,21.888 L42.454908,21.888 L42.454908,3.888 L44.686908,3.888 Z M52.646544,25.488 L56.606544,25.488 L56.606544,0.288 L52.646544,0.288 L52.646544,25.488 Z M67.41018,25.488 L71.47818,25.488 L71.47818,0.288 L67.95018,0.288 L67.95018,15.372 L63.88218,0.288 L58.91418,0.288 L58.91418,25.488 L62.47818,25.488 L62.47818,7.236 L67.41018,25.488 Z M79.725816,15.048 L79.725816,11.448 L85.269816,11.448 L85.269816,19.44 C85.269816,23.472 83.253816,25.776 79.365816,25.776 C75.477816,25.776 73.461816,23.472 73.461816,19.44 L73.461816,6.336 C73.461816,2.304 75.477816,7.10542736e-15 79.365816,7.10542736e-15 C83.253816,7.10542736e-15 85.269816,2.304 85.269816,6.336 L85.269816,8.784 L81.525816,8.784 L81.525816,6.084 C81.525816,4.284 80.733816,3.6 79.473816,3.6 C78.213816,3.6 77.421816,4.284 77.421816,6.084 L77.421816,19.692 C77.421816,21.492 78.213816,22.14 79.473816,22.14 C80.733816,22.14 81.525816,21.492 81.525816,19.692 L81.525816,15.048 L79.725816,15.048 Z" id="LEADING"></path>
            </g>
        </g>
    </g>
</svg>