<?xml version="1.0" encoding="utf-8"?>
<!-- Generator: Adobe Illustrator 16.0.0, SVG Export Plug-In . SVG Version: 6.00 Build 0)  -->
<!DOCTYPE svg PUBLIC "-//W3C//DTD SVG 1.1//EN" "http://www.w3.org/Graphics/SVG/1.1/DTD/svg11.dtd">
<svg version="1.1" id="Ebene_1" xmlns="http://www.w3.org/2000/svg" xmlns:xlink="http://www.w3.org/1999/xlink" x="0px" y="0px"
	 width="1006.5px" height="146px" viewBox="0 226.5 1006.5 146" enable-background="new 0 226.5 1006.5 146" xml:space="preserve">
<path fill="#F35949" d="M867.206,256.908c-1.271-12.164,7.558-23.057,19.723-24.329c12.164-1.271,23.057,7.558,24.329,19.723
	c0.16,1.531,0.16,3.075,0,4.606c-1.272,12.165-12.165,20.994-24.329,19.723C876.52,275.542,868.295,267.317,867.206,256.908z
	 M977.894,277.935c12.031,0.178,21.928-9.432,22.105-21.462c0.002-0.188,0.003-0.376,0-0.564
	c0.521-12.22-8.964-22.547-21.184-23.066c-12.22-0.521-22.547,8.964-23.067,21.184c-0.026,0.628-0.026,1.256,0,1.883
	c-0.179,11.986,9.392,21.849,21.378,22.028C977.383,277.941,977.638,277.94,977.894,277.935z M933.603,277.935
	c-12.053-0.18-21.969,9.445-22.147,21.497c-0.004,0.256-0.004,0.512,0.002,0.769c0.066,12.23,10.035,22.091,22.266,22.024
	s22.091-10.034,22.024-22.266C955.682,287.777,945.787,277.935,933.603,277.935z M889.552,322.186
	c-12.231-0.022-22.164,9.875-22.186,22.105c-0.022,12.23,9.875,22.164,22.105,22.186c12.199,0.021,22.119-9.826,22.186-22.025
	c0.246-12.052-9.324-22.021-21.375-22.267c-0.311-0.007-0.621-0.006-0.931,0.001H889.552z M978.094,322.186
	c-12.23-0.022-22.163,9.875-22.185,22.105c-0.022,12.23,9.875,22.164,22.105,22.186c12.199,0.021,22.119-9.826,22.186-22.025
	c0.246-12.052-9.324-22.021-21.375-22.267c-0.311-0.007-0.621-0.006-0.932,0.001H978.094z"/>
<path d="M30.595,336.522h67.639v27.593H0V235.806h97.874v27.592H30.595v22.186h63.313v27.472H30.595V336.522z M172.4,332.518
	l-33.358-96.712h-32.519l47.455,128.148h36.442l47.375-128.148h-32.037L172.4,332.518z M278.123,313.015h63.313v-27.432h-63.313
	v-22.186h67.238v-27.592h-97.834v128.148h98.234v-27.433h-67.639V313.015z M435.025,315.137l36.843,48.938h-36.442l-33.84-48.056
	H397.1v48.056h-30.595V235.806h55.784c31.717,0,48.577,15.778,48.577,41.047c0,20.344-12.815,34.641-35.842,38.324V315.137z
	 M421.929,290.309c11.013,0,17.781-4.325,17.781-13.496c0-9.17-6.969-13.295-17.781-13.295H397.1v26.791H421.929z M518.601,313.015
	h63.313v-27.432h-63.313v-22.186h67.238v-27.592h-97.833v128.148h98.233v-27.433h-67.639V313.015z M668.776,286.304l-5.446-0.721
	c-14.217-2.482-26.391-4.405-26.391-12.454c0-8.05,8.529-11.534,20.023-11.534c13.012,0.176,25.728,3.915,36.763,10.813
	l13.655-25.109c-15.617-9.274-33.498-14.042-51.66-13.776c-29.954,0-51.219,15.778-51.659,40.688
	c-0.48,23.106,13.815,35,40.046,39.125l6.408,1.001c16.779,2.563,25.389,4.766,25.389,12.455c0,7.688-8.81,12.014-20.344,12.014
	c-14.817-0.178-29.221-4.918-41.247-13.576l-15.298,24.949c14.176,10.692,35.08,16.299,56.425,16.299
	c27.513,0,53.782-12.734,53.782-43.25C709.223,302.242,693.565,290.589,668.776,286.304z M716.351,235.806v28.433h38.044v99.876
	h30.516v-99.876h37.924v-28.433H716.351z"/>
</svg>
